<svg width="38" height="31" viewBox="0 0 38 31" fill="none" xmlns="http://www.w3.org/2000/svg">
<path d="M35.0001 7.80852H33.7311L26.7841 1.4484C26.2991 1.07451 25.6789 0.880336 25.0454 0.904089C24.4119 0.927841 23.8111 1.1678 23.3612 1.57674C22.9112 1.98568 22.6448 2.53399 22.6142 3.11377C22.5837 3.69354 22.7913 4.26278 23.1961 4.70948L26.5811 7.80852H11.5081L14.8931 4.70948C15.1645 4.50236 15.3857 4.24564 15.5425 3.95576C15.6992 3.66588 15.7882 3.34922 15.8036 3.02605C15.819 2.70289 15.7606 2.38033 15.632 2.07904C15.5034 1.77775 15.3075 1.50435 15.0569 1.27636C14.8062 1.04837 14.5064 0.870795 14.1765 0.755014C13.8465 0.639233 13.4939 0.587794 13.141 0.603988C12.7881 0.620182 12.4428 0.703653 12.1272 0.849058C11.8116 0.994463 11.5326 1.1986 11.3081 1.4484L4.33611 7.80852H0.308105V9.35758H2.06811L3.56811 25.8196C3.62118 26.4021 3.9121 26.9448 4.38287 27.3397C4.85363 27.7345 5.46965 27.9525 6.10811 27.95H21.4621V26.4009H6.09611C5.88303 26.4015 5.67754 26.3285 5.52071 26.1965C5.36387 26.0644 5.26723 25.8831 5.25011 25.6886L3.76911 9.35849H34.0781L33.4601 16.1443L35.1521 16.2679L35.7781 9.35758H37.5381V7.80852H35.0001ZM24.3901 3.64107C24.3056 3.57024 24.2376 3.48444 24.1903 3.38887C24.1431 3.2933 24.1175 3.18994 24.1151 3.08505C24.1127 2.98015 24.1336 2.87591 24.1766 2.77863C24.2195 2.68135 24.2835 2.59306 24.3648 2.51909C24.446 2.44512 24.5429 2.38702 24.6494 2.34831C24.7559 2.30959 24.8698 2.29106 24.9844 2.29384C25.0989 2.29662 25.2117 2.32066 25.3158 2.36449C25.4199 2.40832 25.5132 2.47104 25.5901 2.54885L31.3351 7.80852H28.9421L24.3901 3.64107ZM12.4761 2.54885C12.552 2.46795 12.6453 2.40228 12.7503 2.35595C12.8552 2.30961 12.9694 2.28361 13.0858 2.27957C13.2022 2.27554 13.3183 2.29356 13.4267 2.3325C13.5352 2.37144 13.6337 2.43046 13.716 2.50588C13.7984 2.58129 13.8629 2.67146 13.9054 2.77074C13.948 2.87003 13.9676 2.97628 13.9632 3.08285C13.9588 3.18942 13.9304 3.29401 13.8798 3.39007C13.8292 3.48612 13.7575 3.57157 13.6691 3.64107L9.11711 7.80852H6.73011L12.4761 2.54885ZM29.9231 16.3302C28.417 16.3302 26.9447 16.7391 25.6924 17.5051C24.4402 18.2712 23.4641 19.36 22.8878 20.6339C22.3114 21.9078 22.1606 23.3096 22.4544 24.662C22.7483 26.0144 23.4735 27.2566 24.5385 28.2316C25.6035 29.2066 26.9603 29.8706 28.4375 30.1396C29.9147 30.4086 31.4458 30.2705 32.8372 29.7429C34.2287 29.2152 35.418 28.3216 36.2547 27.1751C37.0915 26.0287 37.5381 24.6807 37.5381 23.3019C37.5381 21.4529 36.7358 19.6796 35.3077 18.3721C33.8796 17.0647 31.9427 16.3302 29.9231 16.3302ZM29.9231 28.7245C28.7516 28.7245 27.6065 28.4065 26.6325 27.8106C25.6584 27.2148 24.8993 26.3679 24.451 25.377C24.0027 24.3862 23.8854 23.2959 24.1139 22.244C24.3425 21.1921 24.9066 20.2259 25.7349 19.4675C26.5633 18.7091 27.6186 18.1927 28.7676 17.9834C29.9165 17.7742 31.1075 17.8816 32.1897 18.292C33.272 18.7024 34.1971 19.3975 34.8479 20.2892C35.4987 21.181 35.8461 22.2294 35.8461 23.3019C35.8461 24.74 35.2221 26.1193 34.1113 27.1363C33.0005 28.1532 31.494 28.7245 29.9231 28.7245ZM30.7691 22.5273H34.1541V24.0764H30.7701V27.1754H29.0771V24.0773H25.6931V22.5273H29.0781V19.4292H30.7701L30.7691 22.5273ZM13.0001 12.4566C12.7757 12.4566 12.5605 12.5382 12.4019 12.6835C12.2432 12.8287 12.1541 13.0257 12.1541 13.2311V22.5273C12.1541 22.7328 12.2432 22.9298 12.4019 23.075C12.5605 23.2203 12.7757 23.3019 13.0001 23.3019H16.3851C16.6095 23.3019 16.8247 23.2203 16.9833 23.075C17.142 22.9298 17.2311 22.7328 17.2311 22.5273V13.2311C17.2311 13.0257 17.142 12.8287 16.9833 12.6835C16.8247 12.5382 16.6095 12.4566 16.3851 12.4566H13.0001ZM15.5391 21.7528H13.8461V14.0066H15.5381L15.5391 21.7528ZM24.0011 16.3302V14.0066H22.3081V19.4292H20.6161V13.2311C20.6161 13.0257 20.7052 12.8287 20.8639 12.6835C21.0225 12.5382 21.2377 12.4566 21.4621 12.4566H24.8471C25.0715 12.4566 25.2867 12.5382 25.4453 12.6835C25.604 12.8287 25.6931 13.0257 25.6931 13.2311V16.3302H24.0011Z" fill="white"/>
</svg>
