<svg width="21" height="13" viewBox="0 0 21 13" fill="none" xmlns="http://www.w3.org/2000/svg">
<path d="M5.9729 11.0505C5.94033 11.0505 5.90808 11.0446 5.87799 11.0332C5.8479 11.0218 5.82056 11.0051 5.79753 10.984C5.7745 10.9629 5.75624 10.9378 5.74378 10.9103C5.73131 10.8827 5.72489 10.8533 5.72489 10.8234C5.7249 10.3162 5.57182 9.81872 5.28253 9.38606C4.99324 8.95341 4.579 8.60235 4.08553 8.37163C3.59206 8.14091 3.03855 8.0395 2.48611 8.07861C1.93367 8.11771 1.40377 8.29578 0.954897 8.59319C0.901691 8.62341 0.837967 8.6341 0.776522 8.62309C0.715077 8.61208 0.660455 8.5802 0.623621 8.53385C0.586788 8.4875 0.570475 8.43011 0.577944 8.3732C0.585414 8.31629 0.616117 8.26407 0.663897 8.22702C1.18654 7.87944 1.80407 7.67102 2.44808 7.62492C3.0921 7.57882 3.73749 7.6968 4.31279 7.96579C4.88809 8.23478 5.37086 8.64428 5.70764 9.14897C6.04441 9.65365 6.22205 10.2338 6.2209 10.8252C6.22037 10.8851 6.19401 10.9424 6.14755 10.9846C6.1011 11.0268 6.03832 11.0505 5.9729 11.0505ZM13.8309 12.9611C13.4302 12.9608 13.0351 12.8749 12.677 12.7102C12.3189 12.5455 12.0078 12.3066 11.7684 12.0124C11.5289 11.7183 11.3678 11.377 11.2977 11.0158C11.2277 10.6546 11.2507 10.2834 11.3649 9.93172C11.3801 9.88499 11.4114 9.84395 11.4541 9.81476C11.4968 9.78558 11.5486 9.76979 11.6019 9.76967H16.0599C16.1132 9.76979 16.165 9.78558 16.2077 9.81476C16.2504 9.84395 16.2816 9.88499 16.2969 9.93172C16.4111 10.2834 16.4341 10.6546 16.3641 11.0158C16.294 11.377 16.1329 11.7183 15.8934 12.0124C15.654 12.3066 15.3428 12.5455 14.9848 12.7102C14.6267 12.8749 14.2316 12.9608 13.8309 12.9611ZM11.7949 10.2237C11.7328 10.5003 11.7388 10.786 11.8123 11.0601C11.8858 11.3343 12.0251 11.5901 12.22 11.8089C12.4148 12.0276 12.6605 12.204 12.939 12.3251C13.2175 12.4462 13.522 12.509 13.8304 12.509C14.1387 12.509 14.4432 12.4462 14.7218 12.3251C15.0003 12.204 15.2459 12.0276 15.4408 11.8089C15.6357 11.5901 15.7749 11.3343 15.8485 11.0601C15.922 10.786 15.9279 10.5003 15.8659 10.2237H11.7949Z" fill="#204F38"/>
<path d="M13.8297 11.4916C13.6058 11.4917 13.3888 11.4206 13.2158 11.2905C13.0427 11.1605 12.9243 10.9795 12.8808 10.7784C12.8372 10.5774 12.8713 10.3687 12.977 10.188C13.0828 10.0074 13.2537 9.86589 13.4607 9.78776C13.4905 9.7764 13.5224 9.77051 13.5547 9.77039H14.1037C14.136 9.77051 14.1679 9.7764 14.1977 9.78776C14.4047 9.86589 14.5757 10.0074 14.6814 10.188C14.7872 10.3687 14.8212 10.5774 14.7777 10.7784C14.7341 10.9795 14.6157 11.1605 14.4427 11.2905C14.2696 11.4206 14.0526 11.4917 13.8287 11.4916H13.8297ZM13.6097 10.2245C13.5167 10.2694 13.4428 10.3417 13.3998 10.4296C13.3568 10.5175 13.3473 10.616 13.3726 10.7095C13.3979 10.803 13.4567 10.886 13.5395 10.9454C13.6224 11.0047 13.7245 11.0369 13.8297 11.0369C13.9349 11.0369 14.0371 11.0047 14.12 10.9454C14.2028 10.886 14.2616 10.803 14.2869 10.7095C14.3122 10.616 14.3026 10.5175 14.2596 10.4296C14.2166 10.3417 14.1427 10.2694 14.0497 10.2245H13.6097Z" fill="#204F38"/>
<path d="M18.819 10.2246H9.56298C9.49721 10.2246 9.43414 10.2006 9.38763 10.1581C9.34112 10.1155 9.315 10.0577 9.315 9.99752V8.9758C9.31606 8.21634 9.64604 7.48827 10.2326 6.95125C10.8192 6.41423 11.6145 6.11211 12.444 6.11114H12.816C14.0377 6.12585 15.2291 6.46106 16.249 7.077C17.4232 7.78395 18.3824 8.7519 19.037 9.8904C19.0572 9.92494 19.0673 9.96368 19.0662 10.0029C19.0652 10.042 19.0532 10.0803 19.0312 10.1139C19.0093 10.1476 18.9782 10.1754 18.941 10.1948C18.9038 10.2142 18.8618 10.2245 18.819 10.2246ZM9.81099 9.76682H18.393C17.8416 8.83963 17.0391 8.05785 16.0624 7.49668C15.0857 6.93551 13.9677 6.61383 12.816 6.5625H12.444C11.7459 6.56323 11.0767 6.81743 10.583 7.26934C10.0894 7.72125 9.81178 8.33396 9.81099 8.97306V9.76682ZM3.123 8.09048H3.10699C3.04135 8.08671 2.98004 8.05925 2.93653 8.01409C2.89303 7.96894 2.87089 7.90979 2.875 7.8497C2.96921 6.42466 3.33716 5.02599 3.96199 3.71795C4.07399 3.4433 4.189 3.16407 4.315 2.8473C4.33754 2.79073 4.3837 2.74467 4.44334 2.71926C4.50298 2.69385 4.5712 2.69116 4.63299 2.7118C4.69479 2.73244 4.7451 2.77471 4.77285 2.82931C4.80061 2.88391 4.80353 2.94638 4.78099 3.00295C4.65399 3.32156 4.53799 3.60444 4.42599 3.87726C3.81662 5.14428 3.45902 6.50066 3.36999 7.88267C3.36569 7.93999 3.33781 7.99368 3.29197 8.03293C3.24614 8.07217 3.18576 8.09404 3.123 8.09414V8.09048ZM5.05 8.9694H5.02999C4.96451 8.9645 4.90381 8.936 4.86125 8.89016C4.81869 8.84433 4.79774 8.78492 4.80299 8.72496C4.82883 7.63197 5.03516 6.54886 5.41499 5.51239C5.47499 5.32929 5.544 5.12053 5.623 4.87792C5.74183 4.52674 5.77125 4.15533 5.709 3.79213C5.6772 3.65074 5.61205 3.5174 5.51808 3.40148C5.42411 3.28556 5.3036 3.18987 5.16499 3.12105C5.10839 3.09436 5.06517 3.04874 5.04428 2.99368C5.02339 2.93861 5.02643 2.8783 5.05278 2.82523C5.07912 2.77216 5.12675 2.73041 5.1858 2.70861C5.24485 2.68681 5.31081 2.68664 5.36999 2.70814C5.5768 2.80399 5.75759 2.94097 5.89912 3.10904C6.04065 3.27711 6.13934 3.47202 6.18798 3.67951C6.27399 4.12261 6.2428 4.57812 6.097 5.00792C6.018 5.25236 5.94899 5.46111 5.88899 5.64879C5.51976 6.65433 5.32013 7.70552 5.29699 8.76614C5.29158 8.82187 5.26389 8.8738 5.21923 8.91198C5.17457 8.95017 5.11608 8.97193 5.05499 8.97306L5.05 8.9694Z" fill="#204F38"/>
<path d="M9.56085 10.2245H5.88185C5.81555 10.2245 5.75195 10.2004 5.70506 10.1574C5.65818 10.1145 5.63185 10.0563 5.63185 9.99562C5.63185 9.93491 5.65818 9.87669 5.70506 9.83376C5.75195 9.79084 5.81555 9.76674 5.88185 9.76674H9.55984C9.62615 9.76674 9.68973 9.79084 9.73662 9.83376C9.7835 9.87669 9.80984 9.93491 9.80984 9.99562C9.80984 10.0563 9.7835 10.1145 9.73662 10.1574C9.68973 10.2004 9.62615 10.2245 9.55984 10.2245H9.56085ZM5.06085 3.15483H3.96085C3.86236 3.15459 3.76799 3.1186 3.69844 3.05475C3.62889 2.99091 3.58984 2.90442 3.58984 2.81425V1.32929C3.58984 1.23913 3.62889 1.15264 3.69844 1.08879C3.76799 1.02495 3.86236 0.988955 3.96085 0.988712H5.06085C5.3746 0.988712 5.6755 1.10282 5.89735 1.30594C6.11921 1.50905 6.24385 1.78454 6.24385 2.07179C6.24385 2.35903 6.11921 2.63449 5.89735 2.83761C5.6755 3.04072 5.3746 3.15483 5.06085 3.15483ZM4.08185 2.69707H5.06085C5.24306 2.69707 5.41779 2.63082 5.54663 2.51287C5.67547 2.39491 5.74785 2.23491 5.74785 2.0681C5.74785 1.90129 5.67547 1.74131 5.54663 1.62336C5.41779 1.5054 5.24306 1.43915 5.06085 1.43915H4.08185V2.69707ZM19.2058 5.62675H14.0398C13.9288 5.62681 13.8191 5.6047 13.7184 5.56198C13.6176 5.51927 13.5282 5.45696 13.4565 5.3794C13.3847 5.30184 13.3322 5.21092 13.3028 5.11291C13.2733 5.01491 13.2675 4.91218 13.2858 4.81192L14.0138 0.811101C14.0431 0.64746 14.135 0.498711 14.2732 0.391506C14.4114 0.284301 14.5867 0.225643 14.7678 0.226077H19.9338C20.0449 0.226015 20.1546 0.248127 20.2553 0.29084C20.3561 0.333554 20.4455 0.395838 20.5172 0.473397C20.589 0.550956 20.6414 0.641905 20.6709 0.739911C20.7004 0.837918 20.7062 0.940645 20.6879 1.0409L19.9598 5.04172C19.931 5.20546 19.8394 5.35442 19.7014 5.46182C19.5633 5.56922 19.388 5.62801 19.2068 5.62764L19.2058 5.62675ZM14.7678 0.682915C14.7043 0.682777 14.6427 0.703324 14.5942 0.740889C14.5457 0.778454 14.5133 0.830618 14.5028 0.888019L13.7748 4.88884C13.7685 4.92408 13.7705 4.96016 13.7809 4.99459C13.7913 5.02902 13.8097 5.06098 13.8349 5.08824C13.8601 5.1155 13.8915 5.13743 13.9269 5.15248C13.9623 5.16752 14.0008 5.17534 14.0398 5.17539H19.2058C19.2695 5.17571 19.3311 5.15523 19.3797 5.11764C19.4283 5.08004 19.4606 5.02779 19.4708 4.97031L20.1988 0.96949C20.2054 0.934228 20.2035 0.898075 20.1932 0.863572C20.1829 0.829068 20.1644 0.797051 20.1392 0.769751C20.1139 0.742451 20.0825 0.720543 20.047 0.705546C20.0115 0.690549 19.9729 0.682807 19.9338 0.682915H14.7678Z" fill="#204F38"/>
<path d="M18.105 9.2027C18.0472 9.20265 17.9912 9.18411 17.9468 9.15031C17.9023 9.11651 17.8722 9.06956 17.8615 9.01757C17.8508 8.96557 17.8603 8.91179 17.8883 8.86552C17.9164 8.81925 17.9612 8.78341 18.015 8.76416C18.1074 8.724 18.1857 8.66096 18.241 8.58216C18.2964 8.50336 18.3265 8.41196 18.328 8.3183C18.3103 8.08455 18.2373 7.85713 18.114 7.6518L17.051 5.49393C17.0345 5.46636 17.0245 5.43596 17.0216 5.40466C17.0186 5.37336 17.0227 5.34184 17.0338 5.3121C17.0448 5.28235 17.0624 5.25504 17.0856 5.23185C17.1087 5.20867 17.1369 5.19014 17.1683 5.17743C17.1996 5.16472 17.2336 5.15811 17.2679 5.15801C17.3022 5.15792 17.3361 5.16433 17.3676 5.17687C17.3991 5.18941 17.4273 5.20779 17.4506 5.23085C17.4739 5.25391 17.4918 5.28113 17.503 5.31081L18.566 7.46595C18.7221 7.73285 18.8103 8.02862 18.824 8.33112C18.8195 8.51392 18.7578 8.69169 18.6463 8.84339C18.5348 8.9951 18.3782 9.11439 18.195 9.18713C18.1663 9.19743 18.1358 9.20271 18.105 9.2027ZM9.573 8.97289C9.51275 8.97291 9.45456 8.95285 9.40929 8.91646C9.36402 8.88006 9.33477 8.82983 9.32699 8.77514C9.30399 8.61584 9.28899 8.43367 9.27299 8.24141C9.2374 7.30791 9.00904 6.38901 8.59999 5.53329C8.51807 5.37184 8.48197 5.19406 8.49501 5.01644C8.50805 4.83882 8.56981 4.6671 8.6746 4.51714C8.77938 4.36717 8.92379 4.24381 9.09446 4.1585C9.26513 4.0732 9.45654 4.02869 9.65099 4.02909H13.616C13.6823 4.02909 13.7459 4.05319 13.7928 4.09612C13.8397 4.13904 13.866 4.19727 13.866 4.25797C13.866 4.31867 13.8397 4.3769 13.7928 4.41982C13.7459 4.46275 13.6823 4.48685 13.616 4.48685H9.65099C9.5392 4.48658 9.42918 4.51232 9.33123 4.56164C9.23328 4.61096 9.15061 4.68227 9.09099 4.76884C9.03067 4.85348 8.99512 4.95089 8.98777 5.05173C8.98041 5.15257 9.0015 5.25347 9.04899 5.3447C9.48467 6.24924 9.72834 7.22142 9.76699 8.20936C9.78399 8.40345 9.79799 8.57555 9.81899 8.71929C9.8232 8.74886 9.82101 8.77892 9.81254 8.80772C9.80406 8.83652 9.78946 8.86351 9.76959 8.88715C9.74972 8.91078 9.72495 8.93061 9.69671 8.94549C9.66846 8.96036 9.6373 8.96998 9.60499 8.97382L9.573 8.97289ZM20.336 1.83184H14.123C14.0567 1.83184 13.9931 1.80771 13.9462 1.76479C13.8993 1.72187 13.873 1.66367 13.873 1.60296C13.873 1.54226 13.8993 1.48403 13.9462 1.44111C13.9931 1.39819 14.0567 1.37408 14.123 1.37408H20.336C20.4023 1.37408 20.4659 1.39819 20.5128 1.44111C20.5597 1.48403 20.586 1.54226 20.586 1.60296C20.586 1.66367 20.5597 1.72187 20.5128 1.76479C20.4659 1.80771 20.4023 1.83184 20.336 1.83184ZM2.71699 12.9261C2.2621 12.9261 1.81742 12.8026 1.43918 12.5712C1.06095 12.3399 0.766151 12.011 0.59207 11.6262C0.417988 11.2415 0.372441 10.8181 0.461187 10.4096C0.549933 10.0012 0.76899 9.62596 1.09065 9.33147C1.41231 9.03698 1.82213 8.83644 2.26829 8.75519C2.71444 8.67394 3.1769 8.71565 3.59717 8.87502C4.01744 9.0344 4.37664 9.30429 4.62937 9.65057C4.8821 9.99685 5.01699 10.404 5.01699 10.8204C5.01699 11.3789 4.77467 11.9145 4.34334 12.3094C3.912 12.7043 3.32699 12.9261 2.71699 12.9261ZM2.71699 9.16699C2.36004 9.16699 2.0111 9.26389 1.71429 9.44543C1.41748 9.62697 1.18613 9.88499 1.04948 10.1869C0.912837 10.4888 0.877035 10.821 0.9466 11.1416C1.01617 11.4621 1.18798 11.7565 1.44031 11.9877C1.69265 12.2188 2.01417 12.3763 2.36424 12.4402C2.71431 12.504 3.0772 12.4714 3.40704 12.3465C3.73688 12.2216 4.01885 12.0099 4.21731 11.7383C4.41576 11.4666 4.5218 11.1472 4.52199 10.8204C4.52014 10.3831 4.32922 9.96421 3.99097 9.6554C3.65273 9.34659 3.19468 9.17297 2.71699 9.17249V9.16699Z" fill="#204F38"/>
<path d="M2.71698 11.6327C2.54234 11.6327 2.37162 11.5853 2.22641 11.4964C2.0812 11.4076 1.96803 11.2813 1.9012 11.1336C1.83437 10.9859 1.81688 10.8233 1.85095 10.6665C1.88502 10.5097 1.96912 10.3657 2.0926 10.2526C2.21609 10.1396 2.37344 10.0626 2.54472 10.0314C2.71601 10.0002 2.89354 10.0162 3.05489 10.0774C3.21623 10.1386 3.35415 10.2422 3.45117 10.3751C3.5482 10.5081 3.59997 10.6644 3.59997 10.8243C3.59971 11.0386 3.5066 11.2441 3.34106 11.3956C3.17553 11.5472 2.95108 11.6324 2.71698 11.6327ZM2.71698 10.4699C2.64044 10.4699 2.56561 10.4907 2.50197 10.5297C2.43833 10.5686 2.38873 10.6239 2.35944 10.6887C2.33014 10.7534 2.32248 10.8247 2.33742 10.8934C2.35235 10.9621 2.38921 11.0252 2.44333 11.0748C2.49745 11.1243 2.56641 11.1581 2.64148 11.1717C2.71655 11.1854 2.79437 11.1784 2.86508 11.1516C2.9358 11.1248 2.99623 11.0793 3.03876 11.0211C3.08128 10.9628 3.10399 10.8943 3.10399 10.8243C3.10372 10.7304 3.06286 10.6404 2.99034 10.574C2.91782 10.5076 2.81954 10.4702 2.71698 10.4699Z" fill="#204F38"/>
<path d="M7.01318 2.76485C6.9765 2.76489 6.94026 2.75739 6.90716 2.74289L5.89017 2.3007C5.83332 2.27355 5.79016 2.22731 5.76974 2.17167C5.74933 2.11603 5.75325 2.0553 5.78067 2.00225C5.80809 1.94919 5.8569 1.90791 5.91684 1.88708C5.97678 1.86625 6.0432 1.86751 6.10217 1.89054L7.11917 2.33271C7.16998 2.35482 7.21109 2.3921 7.23572 2.43841C7.26035 2.48471 7.26703 2.5373 7.2547 2.58755C7.24237 2.6378 7.21177 2.68274 7.16788 2.71495C7.12399 2.74717 7.06944 2.76476 7.01318 2.76485Z" fill="#204F38"/>
</svg>
